<svg width="18" height="20" viewBox="0 0 18 20" fill="none" xmlns="http://www.w3.org/2000/svg">
<g clip-path="url(#clip0_309_2439)">
<path d="M0.367188 9.11719C-0.121094 9.60547 -0.121094 10.3984 0.367188 10.8867L6.61719 17.1367C7.10547 17.625 7.89844 17.625 8.38672 17.1367C8.875 16.6484 8.875 15.8555 8.38672 15.3672L4.26562 11.25H16.25C16.9414 11.25 17.5 10.6914 17.5 10C17.5 9.30859 16.9414 8.75 16.25 8.75H4.26953L8.38281 4.63281C8.87109 4.14453 8.87109 3.35156 8.38281 2.86328C7.89453 2.375 7.10156 2.375 6.61328 2.86328L0.363281 9.11328L0.367188 9.11719Z" fill="black"/>
</g>
<defs>
<clipPath id="clip0_309_2439">
<rect width="17.5" height="20" fill="white"/>
</clipPath>
</defs>
</svg>
