<svg width="15" height="20" viewBox="0 0 15 20" fill="none" xmlns="http://www.w3.org/2000/svg">
<g clip-path="url(#clip0_182_2671)">
<path d="M8.38281 1.61719C7.89453 1.12891 7.10156 1.12891 6.61328 1.61719L0.363281 7.86719C-0.125 8.35547 -0.125 9.14844 0.363281 9.63672C0.851562 10.125 1.64453 10.125 2.13281 9.63672L6.25 5.51562V17.5C6.25 18.1914 6.80859 18.75 7.5 18.75C8.19141 18.75 8.75 18.1914 8.75 17.5V5.51562L12.8672 9.63281C13.3555 10.1211 14.1484 10.1211 14.6367 9.63281C15.125 9.14453 15.125 8.35156 14.6367 7.86328L8.38672 1.61328L8.38281 1.61719Z" fill="#1D1D1D"/>
</g>
<defs>
<clipPath id="clip0_182_2671">
<rect width="15" height="20" fill="white"/>
</clipPath>
</defs>
</svg>
