<svg width="20" height="20" viewBox="0 0 20 20" fill="none" xmlns="http://www.w3.org/2000/svg">
<g clip-path="url(#clip0_88_390)">
<path d="M12.5 0C11.8086 0 11.25 0.558594 11.25 1.25C11.25 1.94141 11.8086 2.5 12.5 2.5H15.7305L7.86719 10.3672C7.37891 10.8555 7.37891 11.6484 7.86719 12.1367C8.35547 12.625 9.14844 12.625 9.63672 12.1367L17.5 4.26953V7.5C17.5 8.19141 18.0586 8.75 18.75 8.75C19.4414 8.75 20 8.19141 20 7.5V1.25C20 0.558594 19.4414 0 18.75 0H12.5ZM3.125 1.25C1.39844 1.25 0 2.64844 0 4.375V16.875C0 18.6016 1.39844 20 3.125 20H15.625C17.3516 20 18.75 18.6016 18.75 16.875V12.5C18.75 11.8086 18.1914 11.25 17.5 11.25C16.8086 11.25 16.25 11.8086 16.25 12.5V16.875C16.25 17.2188 15.9688 17.5 15.625 17.5H3.125C2.78125 17.5 2.5 17.2188 2.5 16.875V4.375C2.5 4.03125 2.78125 3.75 3.125 3.75H7.5C8.19141 3.75 8.75 3.19141 8.75 2.5C8.75 1.80859 8.19141 1.25 7.5 1.25H3.125Z" fill="#1D1D1D"/>
</g>
<defs>
<clipPath id="clip0_88_390">
<rect width="20" height="20" fill="white"/>
</clipPath>
</defs>
</svg>
