<svg width="20" height="20" viewBox="0 0 20 20" fill="none" xmlns="http://www.w3.org/2000/svg">
<g clip-path="url(#clip0_309_2446)">
<path d="M20 10C20 7.34784 18.9464 4.8043 17.0711 2.92893C15.1957 1.05357 12.6522 0 10 0C7.34784 0 4.8043 1.05357 2.92893 2.92893C1.05357 4.8043 0 7.34784 0 10C0 12.6522 1.05357 15.1957 2.92893 17.0711C4.8043 18.9464 7.34784 20 10 20C12.6522 20 15.1957 18.9464 17.0711 17.0711C18.9464 15.1957 20 12.6522 20 10ZM9.02344 4.96094C9.39062 4.59375 9.98438 4.59375 10.3477 4.96094C10.7109 5.32812 10.7148 5.92187 10.3477 6.28516L7.57422 9.05859L14.6875 9.0625C15.207 9.0625 15.625 9.48047 15.625 10C15.625 10.5195 15.207 10.9375 14.6875 10.9375H7.57422L10.3477 13.7109C10.7148 14.0781 10.7148 14.6719 10.3477 15.0352C9.98047 15.3984 9.38672 15.4023 9.02344 15.0352L4.64844 10.6641C4.28125 10.2969 4.28125 9.70312 4.64844 9.33984L9.02344 4.96094Z" fill="black"/>
</g>
<defs>
<clipPath id="clip0_309_2446">
<rect width="20" height="20" fill="white"/>
</clipPath>
</defs>
</svg>
