<svg width="20" height="20" viewBox="0 0 20 20" fill="none" xmlns="http://www.w3.org/2000/svg">
<g clip-path="url(#clip0_64_203)">
<path d="M16.0274 9.02344L16.4688 8.58203L15.1446 7.25781L12.7188 4.83203L11.3946 3.50781L10.9531 3.94922L10.0703 4.83203L2.28908 12.6133C1.88283 13.0195 1.58596 13.5234 1.4219 14.0742L0.0390839 18.7773C-0.0585724 19.1055 0.0312714 19.4609 0.277365 19.7031C0.523459 19.9453 0.875021 20.0352 1.20315 19.9414L5.90237 18.5586C6.45315 18.3945 6.95705 18.0977 7.3633 17.6914L15.1446 9.91016L16.0274 9.02344ZM6.25002 15.6016L5.89455 16.4883C5.7383 16.6094 5.56252 16.6992 5.37502 16.7578L2.32033 17.6562L3.21877 14.6055C3.27346 14.4141 3.36721 14.2383 3.4883 14.0859L4.37502 13.7305V14.9805C4.37502 15.3242 4.65627 15.6055 5.00002 15.6055H6.25002V15.6016ZM14.168 0.730469L13.6055 1.29688L12.7227 2.17969L12.2774 2.62109L13.6016 3.94531L16.0274 6.37109L17.3516 7.69531L17.793 7.25391L18.6758 6.37109L19.2422 5.80469C20.2188 4.82813 20.2188 3.24609 19.2422 2.26953L17.7071 0.730469C16.7305 -0.246094 15.1485 -0.246094 14.1719 0.730469H14.168ZM12.3164 7.29297L6.69143 12.918C6.44924 13.1602 6.0508 13.1602 5.80862 12.918C5.56643 12.6758 5.56643 12.2773 5.80862 12.0352L11.4336 6.41016C11.6758 6.16797 12.0742 6.16797 12.3164 6.41016C12.5586 6.65234 12.5586 7.05078 12.3164 7.29297Z" fill="#1D1D1D"/>
</g>
<defs>
<clipPath id="clip0_64_203">
<rect width="20" height="20" fill="white"/>
</clipPath>
</defs>
</svg>
