<svg width="21" height="20" viewBox="0 0 21 20" fill="none" xmlns="http://www.w3.org/2000/svg">
<g clip-path="url(#clip0_54_90)">
<path d="M11.8203 2.11477L10.8984 0.247578C10.7461 -0.0766407 10.2695 -0.0883594 10.1016 0.247578L9.17969 2.11477L7.13672 2.40773C6.77344 2.46242 6.61719 2.91164 6.88672 3.18117L8.3711 4.62648L8.01953 6.66164C7.96485 7.02492 8.33985 7.30617 8.67578 7.1382L10.5078 6.16945L12.3281 7.12258C12.6641 7.29055 13.043 7.0093 12.9844 6.64602L12.6328 4.61086L14.1172 3.18117C14.3828 2.91555 14.2305 2.46633 13.8672 2.40773L11.8242 2.11477H11.8203ZM8 10.0015C7.3086 10.0015 6.75 10.5601 6.75 11.2515V18.7515C6.75 19.4429 7.3086 20.0015 8 20.0015H13C13.6914 20.0015 14.25 19.4429 14.25 18.7515V11.2515C14.25 10.5601 13.6914 10.0015 13 10.0015H8ZM1 12.5015C0.308596 12.5015 1.96695e-06 13.0601 1.96695e-06 13.7515L0 18.5C0 19.1914 0.308594 20 1 20H5C5.69141 20 6 19.4429 6 18.7515V13.7515C6 13.0601 5.69141 12.5015 5 12.5015H1ZM15 16.5V18.7515C15 19.4429 15.3086 20 16 20H20C20.6914 20 21 19.4429 21 18.7515V16.5C21 15.8086 20.6914 15 20 15L16 15.0015C15.3086 15.0015 15 15.8086 15 16.5Z" fill="#1D1D1D"/>
</g>
<defs>
<clipPath id="clip0_54_90">
<rect width="21" height="20" fill="white"/>
</clipPath>
</defs>
</svg>
