<svg width="23" height="20" viewBox="0 0 23 20" fill="none" xmlns="http://www.w3.org/2000/svg">
<path d="M13.75 8.75H11.9336C10.1758 8.75 8.75 10.1758 8.75 11.9336C8.75 12.8047 9.15234 13.2734 9.5 13.5156C9.76562 13.6992 10 13.9844 10 14.3086C10 14.6914 9.6875 15.0039 9.30469 15.0039H9.20703C9.11328 15.0039 9.01953 14.9883 8.92969 14.9492C8.23438 14.6406 5 13.0234 5 9.375C5 6.26953 7.51953 3.75 10.625 3.75H13.75V1.35547C13.75 0.605469 14.3555 0 15.1055 0C15.4414 0 15.7617 0.125 16.0117 0.347656L21.4102 5.20703C21.707 5.47266 21.875 5.85156 21.875 6.25C21.875 6.64844 21.707 7.02734 21.4102 7.29297L15.9805 12.1797C15.75 12.3867 15.4531 12.5 15.1445 12.5H15C14.3086 12.5 13.75 11.9414 13.75 11.25V8.75ZM3.125 3.75C2.78125 3.75 2.5 4.03125 2.5 4.375V16.875C2.5 17.2188 2.78125 17.5 3.125 17.5H15.625C15.9688 17.5 16.25 17.2188 16.25 16.875V15C16.25 14.3086 16.8086 13.75 17.5 13.75C18.1914 13.75 18.75 14.3086 18.75 15V16.875C18.75 18.6016 17.3516 20 15.625 20H3.125C1.39844 20 0 18.6016 0 16.875V4.375C0 2.64844 1.39844 1.25 3.125 1.25H5C5.69141 1.25 6.25 1.80859 6.25 2.5C6.25 3.19141 5.69141 3.75 5 3.75H3.125Z" fill="#1D1D1D"/>
</svg>
