<svg width="20" height="20" viewBox="0 0 20 20" fill="none" xmlns="http://www.w3.org/2000/svg">
<path d="M11.9922 1.35937C11.543 1.55859 11.25 2.00781 11.25 2.49999V4.99999H6.875C3.07812 4.99999 0 8.07812 0 11.875C0 16.3008 3.18359 18.2773 3.91406 18.6758C4.01172 18.7305 4.12109 18.75 4.23047 18.75C4.65625 18.75 5 18.4023 5 17.9805C5 17.6875 4.83203 17.418 4.61719 17.2187C4.25 16.8711 3.75 16.1875 3.75 15C3.75 12.9297 5.42969 11.25 7.5 11.25H11.25V13.75C11.25 14.2422 11.5391 14.6914 11.9922 14.8906C12.4453 15.0898 12.9688 15.0078 13.3359 14.6797L19.5859 9.05468C19.8477 8.8164 20 8.48046 20 8.12499C20 7.76952 19.8516 7.43359 19.5859 7.19531L13.3359 1.57031C12.9688 1.23827 12.4414 1.15624 11.9922 1.35937Z" fill="#1D1D1D"/>
</svg>
