<svg width="18" height="20" viewBox="0 0 18 20" fill="none" xmlns="http://www.w3.org/2000/svg">
<g clip-path="url(#clip0_64_206)">
<path d="M2.5 1.25C1.12109 1.25 0 2.37109 0 3.75V16.25C0 17.6289 1.12109 18.75 2.5 18.75H15C16.3789 18.75 17.5 17.6289 17.5 16.25V3.75C17.5 2.37109 16.3789 1.25 15 1.25H2.5ZM7.8125 13.4375V10.9375H5.3125C4.79297 10.9375 4.375 10.5195 4.375 10C4.375 9.48047 4.79297 9.0625 5.3125 9.0625H7.8125V6.5625C7.8125 6.04297 8.23047 5.625 8.75 5.625C9.26953 5.625 9.6875 6.04297 9.6875 6.5625V9.0625H12.1875C12.707 9.0625 13.125 9.48047 13.125 10C13.125 10.5195 12.707 10.9375 12.1875 10.9375H9.6875V13.4375C9.6875 13.957 9.26953 14.375 8.75 14.375C8.23047 14.375 7.8125 13.957 7.8125 13.4375Z" fill="#1D1D1D"/>
</g>
<defs>
<clipPath id="clip0_64_206">
<rect width="17.5" height="20" fill="white"/>
</clipPath>
</defs>
</svg>
