<svg width="13" height="20" viewBox="0 0 13 20" fill="none" xmlns="http://www.w3.org/2000/svg">
<g clip-path="url(#clip0_88_554)">
<path d="M12.1328 5.88281C12.6211 5.39453 12.6211 4.60156 12.1328 4.11328C11.6445 3.625 10.8516 3.625 10.3633 4.11328L6.25 8.23047L2.13281 4.11719C1.64453 3.62891 0.851562 3.62891 0.363281 4.11719C-0.125 4.60547 -0.125 5.39844 0.363281 5.88672L4.48047 10L0.367187 14.1172C-0.121094 14.6055 -0.121094 15.3984 0.367187 15.8867C0.855469 16.375 1.64844 16.375 2.13672 15.8867L6.25 11.7695L10.3672 15.8828C10.8555 16.3711 11.6484 16.3711 12.1367 15.8828C12.625 15.3945 12.625 14.6016 12.1367 14.1133L8.01953 10L12.1328 5.88281Z" fill="#1D1D1D"/>
</g>
<defs>
<clipPath id="clip0_88_554">
<rect width="12.5" height="20" fill="white"/>
</clipPath>
</defs>
</svg>
