<svg width="20" height="20" viewBox="0 0 20 20" fill="none" xmlns="http://www.w3.org/2000/svg">
<g id="clone-regular 1" clip-path="url(#clip0_836_1358)">
<path id="Vector" d="M2.5 18.125H11.25C11.5938 18.125 11.875 17.8438 11.875 17.5V15H13.75V17.5C13.75 18.8789 12.6289 20 11.25 20H2.5C1.12109 20 0 18.8789 0 17.5V8.75C0 7.37109 1.12109 6.25 2.5 6.25H5V8.125H2.5C2.15625 8.125 1.875 8.40625 1.875 8.75V17.5C1.875 17.8438 2.15625 18.125 2.5 18.125ZM8.75 11.875H17.5C17.8438 11.875 18.125 11.5938 18.125 11.25V2.5C18.125 2.15625 17.8438 1.875 17.5 1.875H8.75C8.40625 1.875 8.125 2.15625 8.125 2.5V11.25C8.125 11.5938 8.40625 11.875 8.75 11.875ZM6.25 11.25V2.5C6.25 1.12109 7.37109 0 8.75 0H17.5C18.8789 0 20 1.12109 20 2.5V11.25C20 12.6289 18.8789 13.75 17.5 13.75H8.75C7.37109 13.75 6.25 12.6289 6.25 11.25Z" fill="#1D1D1D"/>
</g>
<defs>
<clipPath id="clip0_836_1358">
<rect width="20" height="20" fill="white"/>
</clipPath>
</defs>
</svg>
