<svg width="20" height="20" viewBox="0 0 20 20" fill="none" xmlns="http://www.w3.org/2000/svg">
<path d="M11.011 1.63274C10.8247 1.24607 10.431 1 9.99865 1C9.56628 1 9.17609 1.24607 8.98626 1.63274L6.72597 6.28339L1.6781 7.02862C1.25627 7.0919 0.904747 7.38718 0.774683 7.79143C0.64462 8.19568 0.750077 8.64211 1.05239 8.94091L4.71526 12.5651L3.85051 17.6868C3.78021 18.1086 3.95597 18.5375 4.30398 18.7871C4.65198 19.0367 5.11248 19.0683 5.49212 18.8679L10.0022 16.46L14.5122 18.8679C14.8919 19.0683 15.3523 19.0402 15.7004 18.7871C16.0484 18.534 16.2241 18.1086 16.1538 17.6868L15.2856 12.5651L18.9484 8.94091C19.2507 8.64211 19.3597 8.19568 19.2261 7.79143C19.0926 7.38718 18.7445 7.0919 18.3227 7.02862L13.2713 6.28339L11.011 1.63274Z" fill="current"/>
</svg>
